<mxfile host="app.diagrams.net" agent="Mozilla/5.0 (X11; Linux x86_64) AppleWebKit/537.36 (KHTML, like Gecko) Chrome/127.0.0.0 Safari/537.36 Edg/127.0.2651.111" version="24.7.14">
  <diagram name="Page-1" id="60_k3CDy5BIruBYhRCAY">
    <mxGraphModel dx="1861" dy="459" grid="1" gridSize="10" guides="1" tooltips="1" connect="1" arrows="1" fold="1" page="1" pageScale="1" pageWidth="827" pageHeight="1169" math="0" shadow="0">
      <root>
        <mxCell id="0" />
        <mxCell id="1" parent="0" />
        <mxCell id="IissaxFBr2R8JO8hJcPu-1" value="data-engineering@pepsi-ecom.com" style="sketch=0;outlineConnect=0;fontColor=#232F3E;gradientColor=none;strokeColor=#232F3E;fillColor=#ffffff;dashed=0;verticalLabelPosition=bottom;verticalAlign=top;align=center;html=1;fontSize=12;fontStyle=0;aspect=fixed;shape=mxgraph.aws4.resourceIcon;resIcon=mxgraph.aws4.email;" vertex="1" parent="1">
          <mxGeometry x="50" y="40" width="60" height="60" as="geometry" />
        </mxCell>
        <mxCell id="IissaxFBr2R8JO8hJcPu-2" value="SPA box: globalecommdataplatforms@pepsico.com" style="sketch=0;outlineConnect=0;fontColor=#232F3E;gradientColor=none;strokeColor=#232F3E;fillColor=#ffffff;dashed=0;verticalLabelPosition=bottom;verticalAlign=top;align=center;html=1;fontSize=12;fontStyle=0;aspect=fixed;shape=mxgraph.aws4.resourceIcon;resIcon=mxgraph.aws4.email;" vertex="1" parent="1">
          <mxGeometry x="50" y="396.06" width="70" height="70" as="geometry" />
        </mxCell>
        <mxCell id="IissaxFBr2R8JO8hJcPu-8" value="" style="shape=stencil(lVnbchs3DP0avWJIgtfnNP2PzMSpNXXtjOP08vcFqnIlAtoj6c1e4eySIHBwAB7404/nL9+fDin8+Hh/+/3pr+PXj+cD/3JI6fj6/PR+/JC/Dvz5wJ++vb0//fb+9vP16+n/71/UUv/64+1PfcPfJ1yglBWUwj+nB71RCf89+fVk/3J8vbCPxMPaN2DPFNz7e9m3L8R9ta80wPu7s2fiCtYfaaQF0CpVtOFCdd1xbZQRYFBel1QGpbYPEB/9//MGSFQzADQKvABypwa+wIGaATSKDACZuKwAeYIAcqrmC4lC3wfkSHE9Bx4UIgBkSmEFFHhwukXzhTT9dh0w7B7E0YxiNVE2AJ7pdB2QaayhETt0a9mScQPkuavrgEFjjaUoGQ4ANRGvCVopgz3XTGW1Z2oD2FcqayRFeGq1U17fH6iC0G6yPTb2KNlatEcQKIL1NJ6fP9ujIGqFUrH26P2VmvVPAP5vneK6njQdfN1+UKlrYs4FXufTQGP1Z6UA4qcnu98KqUjoucSVfymA+Ol5lpezfQL+74V6s/bo/W1u72zPgIZ6n8R5YY/8Myh2aw/WPyQc6yP28cr6sX13/gc8PZI9LymXyJ5nOp3tI4g3sS9reS3zwXV7X5lu2Y/VnwzjcxTPbxHEw6jz54t8BPpjbO4728P3N5tfcdbyPXtTxCJlEJ9jeH6OyD/DyiFZD4oHKaqmCkO+Enujzyox4E+1X/05oH9i2Ph42wBPwbb7BVNS28zp3S2vLpIakNEZj+nCDZCooyAaUx9uAGF1DDA6QgAZA0yaybkhXSAAU4e1VUCBKsS47kG1EI7U6LRQA2rrCiBMMrhzSW12F3fuWcgJ5w6vXJRgLfanFqG89GERp5i6N+6oY/tuuRrVVp85ncqDuZmgevXZL+3auJHMK71ou4Zz0/CXEjY+NEOQkjnjIQbWkoYz50GAqwlKF8hLrujoHlBk+6rGUOZfKZs8k+/OuqyF9qHCL9kwkJecskgR9lpeumgvgWLJaaM4sFhw4ksASI17dSekWjHAyEdlYXTSTp/eAKgAbg8BnMJWAPCSl/AKQD1OmdX1zjbcNyECQF2mdjkOgAYu2kYZ6m7zKHf7tGgBsHEcNoGEKmGn3CfPXQilAlhDW1nzBTwD8r1yjHNceGczroCHun0BIJrx4wQBoH7QzysEgAaiOhBp1ksVhIZOXEy05lmTdkc6TrBm4KXqyq4KDTT4arPebIACi2Ipc7a3AcbN0Zpp2zKMVh3eGUCH4k3Hg+vBZYaxpAPIlWayVD2wBx1xrl4qAX5Bh6jrkgpDt3K2Jy2ORmrGD4JLh+OUtJHKxTC7g7IrZZxN/48bbi2BZiARYMcqtGX2IEwFJ/jRKgGpGPhOIa8rEmmAZpzF3okMeQOwd3ciqhnBMbs7FxWlYP3uTudCWO8AzIzqrHr37NnaIz0ZZhm4dBCIuuAc1OAQIFh2EbWI5KrjOzlgdOnl7fmGP+16IhTofr9hXnbc508RWYhY3HmJxkr4fM37Gxz6PXqJeNte/jjfWH47vrycLjwvf7c3nPLodDvKn/8F);lineShape=1;strokeColor=default;" vertex="1" parent="1">
          <mxGeometry x="115.55" y="63.85" width="124.45" height="9.06" as="geometry" />
        </mxCell>
        <mxCell id="IissaxFBr2R8JO8hJcPu-10" value="" style="shape=stencil(lVjbTuQwDP2aebWSOBfnmWX/A4lhGS3LoIG9/f26O0qp3fYgJB5K57hJ7HN8yYFvXh/vXo6HFF7fLufvx9+n+7fHA385pHR6fjxeTm/6dODbA988nC/Hb5fzz+f76/8vdxNyevpx/jV94c/VLgmpyfQX/l7fBGL+/+LrFf90el7gmakUg2dKEeA7cTb4Rinv43OlxAYfE8W6b1AyBbtAbNTavkFN/sR6BAZbamFlIFSBj1ojbtZH6qSwbyBM2a7AlUSAgRB3a9BJ0r5BT8TVGORIDazQ29jxbMAkfd8ghkDBWeg3gEWv1CyVSqQM3KSHaJYbhSGZpFGxflW2CIicxEH+2WDe5HaoM8VoDTpFEIhaKdtD10gCBFSEmnVrzdSRQaRk2VdnjW9LLlMSK9E42LKt6UbdkkndkEEcOPktqUQS0GiqQ8KzQacGVkhx6GUYaCg7omujalcQDSWgRtSfbeCkwszXBzUHvge4QPWSVgmiLFMpOrxQRrzwB+7KVKC2POS+wKP9MPXs8R3gE/WwwqOIbeAbxIfVfhhIOYzcs/BnA/vXdGf5oPHqgNOKZ4+PIAOHsdsZX0eV2ME7UfYC66AqJng8A/6kDXwA/ueRaRd4lBnzxvdRNVA+r/AoL1avX/VnAf7f0iPKinUUuwV/IuBbIWkej2q+em+l3wzim33OVbygrE7J+mdR0XcI4Tq1aQFwAC0qKwEXSOgi3kEdCjiyxycsYLefBqvYZ/F5VWEqDIB+zZWwTA34J4ZVzUtUwQJawsSmCAkwpcfuc2KTobptSsx9wGxQYYy1SoplnbYSDFZglb1tuLRZQTLOiYI10HYog0NnGWlkNpilty1MzRQ2DtrSwcqdx0QzN40CWwk9oqNSwVvSMIlrSxNsuERzuduS0h0ETrqfA9VviHw9+35IxwMUuI0VPmjeV9TQ2KMMKSsBTdMqUqgK0nppoiNISXU1gLC2JYhLfXBznjXLqIt73X60EtU8lcCWdIxzfaOmBdRa6yjqJsEO+xwOq4FlzBfbKaD4iYjhDYTig/Pp6Kz2cpLbD86Sii/R4dGQOeU8VzhhxKbvuxsOSLo0h+f9hgaVwck/zeEL6NMU784bYAbWcDr/BzhHpOrr+AdtRfPZMYwMvodvfv+oz/zsjdfHeH14v157OD09XW/nlr/76zh9db3K49t/);lineShape=1;strokeColor=default;" vertex="1" parent="1">
          <mxGeometry x="214.6604852712101" y="52.44978186245194" width="25.343486782267064" height="32.862887993088634" as="geometry" />
        </mxCell>
        <mxCell id="IissaxFBr2R8JO8hJcPu-11" value="retail-de-lambda-save-attachments" style="text;strokeColor=none;align=center;fillColor=none;html=1;verticalAlign=middle;whiteSpace=wrap;rounded=0;" vertex="1" parent="1">
          <mxGeometry x="190" y="92.57" width="210" height="30" as="geometry" />
        </mxCell>
        <mxCell id="IissaxFBr2R8JO8hJcPu-12" value="Amazon S3" style="sketch=0;outlineConnect=0;fontColor=#232F3E;gradientColor=none;strokeColor=#ffffff;fillColor=#232F3E;dashed=0;verticalLabelPosition=middle;verticalAlign=bottom;align=center;html=1;whiteSpace=wrap;fontSize=10;fontStyle=1;spacing=3;shape=mxgraph.aws4.productIcon;prIcon=mxgraph.aws4.s3;" vertex="1" parent="1">
          <mxGeometry x="550" y="37.57" width="60" height="55" as="geometry" />
        </mxCell>
        <mxCell id="IissaxFBr2R8JO8hJcPu-14" value="" style="shape=stencil(lVjZbhsxDPwavxKURF3PafofAeI0RtM4cNLr78uFodQi7Vn7zd7lrA4Oh8cm3b0/P7xtN5HfPw7779vfu8eP5036solx9/q8Pew+9Ncm3W/S3dP+sP122P98fTz+f3tYLJdfP/a/li/8OeKYYltAkf8eH9RC9fjk69H+Zfd6Yh8oirVv/bJ9pFJm+0YZ2As1nuwbU5PL9o3Y2CeK4PshUkwzQCihA1fK0e4oJ3DiRDXPR04UACAxybxCiVQrANTxvQHIgQK4JEkks9ckUCsA0Mf3BiBlYnCGLFRmHumpCrjW3KnMh1ZXNrBCSeP1CYAzAFSSeUuxUo2XAZUpdAvI4Aw1jtenALSCUBcHYACo1g8KEEDvqo5zWxJwhhbGJV4LiNTCTQAhKTcByqDatQC9xNu21Ab7rwR0pQbfBFCdvA0QKTg/RAzoxtNlCM95QKJSLYAB+bpQNLeUKQJ69+zYqkGLAc0cWvMFoHcvVMwKYSSM84DqyKdSGQCgUzS3NFThkr3M3GNK2D4XY89AidW+zjqpzEJe7vZKE5RVtTeSVGF2W+xnkQyBOthQYLYpOqgX8RG6YYX6DNGou3BWoUWs0Et1CoOqksVrJtgadUwjk9MVUPG9RifcKL0pILhDM6gaFMBmBR5PLgJmaoQ8hPYiYN5S4DXyBVP5UAZ1zHJJs30ixm5LNthW9pNtMEOF7FZSGctXd7lzNTiDuZ8VMTI5QR0gYIFzwZnXrrTPRw599cymqko4T/VR/J7kKdQC3A5wSUE0mpEIu7SjAJicXWKTitOCS51SRva9MjmLjDWvTP8KgOHvCgxtIxJiqythJOLk7IokBUAZdmXYCsAXemsAV0quAVyxugZw5fAawBXcawBX0iugoC7DNQ1rANeWrAFc47MAQEr3rdUCADHtmzcFVJCsymcjdcpW1E+6BlTjAamxb3EV0FFPLENJPwEZCpm4GiDzCKmLgwADqLD8XEYNM6AUSmg2wXbUUBtcYckGsy5p0KKeeBnIzCuoPDPwtB/5nKS982SyNe5SqIAVZIzMTnbUAbujTScq/wz87IZuKuaIqm6op/Yov6l9sPYodtgK/ZIrACl4lBSf9rhrYytgKvyo6VH7OdCUQgL3b4eGhQTvx9gLzIR+P5ES4IM7b2M45XH3qTHWAX+cv1TA0YDR8UHt0fTv1iHyur3++D+xftq9vBwH3qfv7YRbHx2n4+n+Hw==);lineShape=1;strokeColor=default;" vertex="1" parent="1">
          <mxGeometry x="330" y="65.06" width="204.63" height="6.62" as="geometry" />
        </mxCell>
        <mxCell id="IissaxFBr2R8JO8hJcPu-15" value="" style="shape=stencil(rVjdbpsxCH2a3CLbGGyuu+49KjVdo3VNlXZ/bz++Rc5ivuR0k3aXppwYDBwO3vDN6+Pdy3ZT0uvbYf95+313//a44Q+bUnbPj9vD7s0/bfh2wzcP+8P202H/9fn++PfL3WK5fPqy/7b8wo8jjinXBVTSz+MXiYr8/uLj0fxp93xm3kh4Mi/E5bp5ZuptshfKet3ef67P7nRqwJ6ZdPYnF7J6HVCFSpoBjRgELEo1RJxJQciqJHkGCDFwqQklmwEdutT9zvsE4EQduNR7DJoLNbsOMP/3nAausCxMqcxBs5A0UBgpUQo+GTFAWKc+J6JmmGoTqjID6ij2y4BEVWeAkAGXeqUWTmjUOki1JyLEYKSoNjLVORGSScAJWmNDCFMDMUgjnWMQDzoBQKY8p1o6ZeCSX2KaY9BEgpraYh7UaSEDQCWbXfJrQInjVQzaKIOgvSNTcMmrFRGZjLwOgKeyA5eciHnuh+apRC5lSnMMrY2Cv9xyTqVzafREzACgkby7TwsEkDgduo57uwxwVpmZrNsgksuAQnnmSqcFBreUcywNBxiaWHmw0AlgowevMNkYB2cAVK0WSeOMCy/TTJyJfgCq7kZm0b6BtDUqK3s01HUMm7MrRUNaSVcpQGWk1OZOMC9sxKqUQsbcQ2ivFu0rSFinurJPaHrG8eyTyIA/XkGhC5YDECBHxeAAxoBWVleEuKJEglxygLqgUFkVBYyhUOIIaLgxZdWYBV9rX/cBIhdvQ4kAA4VtUTu/38lF4wEddqakaF9B5yuZxDtFAWic/QubgixrHGp26qX/Ym9xpLlyzagmUmy1RZKBA5aqmzPQ89D3VydUGMsdN4LGceD6XlCrWWy1VkhBXfvgb3NdKx44pQ46PFM7qEy9TiWonTo4/LKeKnGmuWITcK3c4i25Jqwg05WjcnbVWRDABqef6Vo0BUVjaQhDabGI0rDbZjgX1KIAqx22Q9PRjSeAL5eg+HwzlACoeLSttEItUETairZ9C0sgD8ZjSTvteR3Stm9hNl8rKyTJvtIXvntmtD+n2A/Mowcv54GjrvWFG61t3i6hNBbRgYqvxoXb9wEkU70f6hyD8wiqJV95+lzertaRyiurPPgELlhqt9mld2Ie1H6qJJjmFP0vkJJSHJ0FKqQU6aXAVk6RKzJcsldvHRmS3YVfR1Jq5XuCcjzF96kENUWKpezHofkXl4mEZeBw9cwcTabxCvW35i2Gipz5x7fQd839w59n14fd09Px1fb8//GZ1r86PvHy7S8=);lineShape=1;strokeColor=default;" vertex="1" parent="1">
          <mxGeometry x="511.894855684336" y="48.81666591736876" width="28.794354891416788" height="40.128285559459925" as="geometry" />
        </mxCell>
        <mxCell id="IissaxFBr2R8JO8hJcPu-27" value="dev-pepsico-ecom/emails_processing/data_engineering_attachments/unprocessed" style="text;strokeColor=none;align=center;fillColor=none;html=1;verticalAlign=middle;whiteSpace=wrap;rounded=0;" vertex="1" parent="1">
          <mxGeometry x="430" y="100" width="350" height="30" as="geometry" />
        </mxCell>
        <mxCell id="IissaxFBr2R8JO8hJcPu-4" value="" style="outlineConnect=0;dashed=0;verticalLabelPosition=bottom;verticalAlign=top;align=center;html=1;shape=mxgraph.aws3.lambda_function;fillColor=#F58534;gradientColor=none;" vertex="1" parent="1">
          <mxGeometry x="260" y="42.57" width="50" height="50" as="geometry" />
        </mxCell>
        <mxCell id="IissaxFBr2R8JO8hJcPu-28" value="" style="outlineConnect=0;dashed=0;verticalLabelPosition=bottom;verticalAlign=top;align=center;html=1;shape=mxgraph.aws3.lambda_function;fillColor=#F58534;gradientColor=none;" vertex="1" parent="1">
          <mxGeometry x="55" y="200" width="50" height="50" as="geometry" />
        </mxCell>
        <mxCell id="IissaxFBr2R8JO8hJcPu-29" value="" style="shape=stencil(nVjbUhsxDP2avGos3/1M6X8wQyiZUsIEevv7KrNjspKds9C3ZdGJdTk+knYXbl4f7172O+9e307H7/vfh/u3x134svP+8Py4Px3e5GkXbnfh5uF42n87HX8+3y9/v9ydLc9PP46/zr/wZ8FxIVfPKO/+Lm8c5eXF18X+6fC8svdMXJR9oMTAvhAHZZ8p+uv2IZJjZd+ohuv2kclrfzhQAQ7FQl4HLClo4ITkqegIvIcupUZBn+ArJQDIidjrnEYKIEmFqTkNaNQaADTipABRypCuA2qyAElDytcBTWij65YqZXBCkxCbJoa8iQCQyemgc6UCghZA1nUoUjh8QtNcKpIlBJDLo2OQRFcUtNyGqADVUwOVFoDJklQG1kHIbE4onSxzgJRJp7W2noY5QOitAY2pAMlg52zlWqAAgpAsGp9WvzFHCDk0X8XNBipxpkKxAMSm4ig6C0jgBGFnbRbgMSCZEyokR25W+wSQUAxsxVgAAYhlCUOWaqf8HCDqauS7QDZVR9UNAKRMkXweXAKXVPjvowV4IMfC/8gWEJHQuH4lV4AK0joBtC4MH3WpYf0egxZ6Ay5N0ioXCMQwKdxGDxqpIQCgGxPyYXWd0FuEBKR1coFE3D53RRs51NpHEZCmhYRslJna33xUyCoxEtdRKivW1kGNN67o/wDYkG+zQVQDYKjedbhxG12usmXrRh8VQDGNF3dqAdhOjWcBAdRx2sAnFB102Zj6mKIZgDw+wfWsr2YyNGKdKz1MfRFcoJL6urCaKwsonNzppoOWyTUDauRgATIboy6ahrkyuj4tz1eO9xVmNd+jOkRZgrRLskGgrSyUvi+sdhSkrUG4pAFc+xIy3+OS5RK/520+9clkoYNmyRK4QCzqrdOa8SLXq3pZRAsgkutDwmXPRe1tGFkdbJ+u1/NijjY+thuig3Ln+9kXcw8zE63vKPHZFsrBllZH31H3kKpHm3gHMsl+9N6h7SLapu+6xMztRZWtPwGVKo/2CcX7yQ8q2/bycPl683B4elo+/qz/b7/2yKvlS1G4/Qc=);lineShape=1;strokeColor=default;" vertex="1" parent="1">
          <mxGeometry x="76.89771318585531" y="125.7895600160249" width="6.579509297347613" height="71.23838583673466" as="geometry" />
        </mxCell>
        <mxCell id="IissaxFBr2R8JO8hJcPu-30" value="" style="shape=stencil(7VjbbtswDP2avBKSKJHSc9f9R4Gma7CuKdLu9vejF8iz6PgEBfa2vTkOj8U7j7jjm9fHu5f9LoXXt9Px8/774f7tcccfdikdnh/3p8ObPe34dsc3D8fT/tPp+PX5/vz75W6SnJ6+HL9NX/hxxiWKPIFS+Hl+EZkk/n7z8Sz/dHheyEcKYZCvlNO2eKDYBvFCJSPxEAfxTBKg+KiM6c5QmTKIJ5KKxLOMrqEKPBOoRSceFDky6yAeqABTLU7RiUfgyETanHgAX+e1MhGIZ4rJiWfgdwuiV6YBzxSK3u8oTIXy+PUEUywGr3ylBD4/1UMe1TF7CgBoV3dWiGGNmMJh1IgNAE5I4sOVDYDCG3wESqIGnMTZ575ESiBmrFTHPiK1W3U5JwLpmNDKXcnLACYei10tcAhQSF2gIzXgpRKIRy9VswrYUDKl8YRmRYwyu/rAGUDBCcKUgldJBACkm7gwOoNIS6My2qBCCbQ5TatIN5h89r08RtpyCbW6at1kLCDL1gqMrrlX8FwPmQooIHNiGW1gIQUntNKH4twEtDfkywChMOZSFFhABlDXZix/gZeaei8ZAHWNZuWyOgF5yQCNPaCBimutx3VhtCIvtR7XhVthbw2rkR/r1SNcIBop6PeTEaObbFwpqCADOJWm2Y7cVImTBzSUfZauo5smOoByQzpTWZxQkdHiZ64BGBldepwWXkJj1wAsPg7XAK7k5u65BfDZp5CWGMAzNul9YctLxQEKbEwWuLSqINT6DNCaB2QUuOrH6KQSrgdmbzQaEAZQ9W5lMLMM0Fxjqj32m4Axlyw1YODaimGFaza8ExA7Y5sHRIOEqVYf6ay9e27NLOfWIpA72BxPjpIVaIPRI0d0NVMAuaTF3zHsTDQgjArw6NZpsCI6Y7k0RrqlPpS2+E91AMsloJIxrOTqIeCrj5G44DhZw7yyebbRZoZzGWD0xBkxM83LgLgicTg3LDndHaima3Q9jENOtTPNzQuBo+uxN5LLgOgXC5KJgUpJPdW1gojgBJuBdQRk6dT0MnmwG8lYQeYGNEbjfA2b24bCO0rzFWeNrKJsJXHylozIqV3dOZHgRfr/8mUzsv/28gUM47+wfAHKiM9I3Dl1dYmKsP6snB3zSJ05b8m7+mPoS1llWe5DeUO+qJdHFyhZ6WMVC+TtX2ev4KXLiplJH00b8p6z40ss+/E+6QOyZ7XdMHtRfJPf6Jg8HBEr/TPexL1zGX5d3h7+bN4fDk9P58X98n+/qbdX5y0/3/4C);lineShape=1;strokeColor=default;" vertex="1" parent="1">
          <mxGeometry x="69.48757142574482" y="183.0948610886179" width="28.445871858214332" height="20.114450834796457" as="geometry" />
        </mxCell>
        <mxCell id="IissaxFBr2R8JO8hJcPu-34" value="retail-de-lambda-forward-attachments" style="text;html=1;align=center;verticalAlign=middle;whiteSpace=wrap;rounded=0;" vertex="1" parent="1">
          <mxGeometry x="-26.29000000000002" y="250" width="220" height="30" as="geometry" />
        </mxCell>
        <mxCell id="IissaxFBr2R8JO8hJcPu-35" value="" style="shape=stencil(lVjZctswDPwav2JIgudzmv5HZuI0nrpxxkl6/H2hepiKgLyy3mQZKxLXcsEd3709P7zud8G9vZ9P3/e/Do/vzzv+sgvh8PK8Px/e5WnH9zu+ezqd99/Op4+Xx8vv14fJcnr6cfo5feH3BVcyxTShgvtzeeMoln8vvl7sj4eXuX2iWgZ7JheBfSBug30mn6/b50IlDvbekUvXAalRyiMgUm7XAbFR8yOgUfEAEKiEARASOeADZ0oqRo4SCBIztdFpTtQCAASqbgBETx74IAAenY6SyAoBrg6A5CggHzw1BYjEK4DR6VQpoLB6nbgsmwSZngBjlLI4jaLkqapibRQRIGofpN4rqFZuFMYoFdwPsVAYnS6NmEE/ZMpj8dXQ11zuOKaiAOIVCKvEpPIIKBTBloQz4tiiVZoWrFCdTlzzlEBYa6YwslhjCoDGWujf+wRESAJNenrMQ0u9HJcBJtPyiQp62jshOuV164FbXqLq6hNABi3XDHkLoIBESNi92RLyuibywQBA9ZVKaQzTLA7XThSfzBLoSJHUGScqKA6hlcAmTCCu6TOKM0ACXgsgmjAhosmSCJM5RMc5Us0a4FFYnUl1hTQgxMVsAGBLwkMtbAK0To03bkl6OPotTsv3vAGgsE6VUzUAJW4qBFNLqDRaWWg5VHxCZdWwACrvao6UlQYSOi4bezQudBCigVwNgWOikVMrbqKy7IhN5hBZSo+ypWMQ1+2ASlkBMlQPE22oVCeYOVlBs0DsynEZIB2kmIyh3BA1rTvIU0ZqmikbMZCRZKrkrNxA0lVknxI0CY4QIWphKVTFAOBF0IyJm0QZ4kpN95PqQ8q1zxdzWQkqySiHFd1q7bEwtvZYeYv9GNAVae90ildmB3NWrQwnrovBG6cf17XgfLwCbeOpjPliLA6j1obTgAi1YQ/ffAQFbelLj8dsyM2ggmQsXxijUVsaH7yDW5I+VnpBegDkLMoQMB4J+KZB7HlMMr7JiGbIkA+gSSxo8nX9zFq2N6zi8KRXtdpxfQRfpuqgmwzHXwbDoPePznA5MJUyX7GPnUJu248c+XmLv8WM/zieokFY7x/lqyQtT3E9bL45W7WXh//XdE+H4/Fyyzf/X1/ryavLlSDf/wU=);lineShape=1;strokeColor=default;" vertex="1" parent="1">
          <mxGeometry x="82.29130605381965" y="285.05527672214646" width="3.1382893892869106" height="119.1010813663629" as="geometry" />
        </mxCell>
        <mxCell id="IissaxFBr2R8JO8hJcPu-36" value="" style="shape=stencil(lVjZctswDPwav2JIghee0/Q/MhOn8TSNM07S4+8L1aViQNJm/CZbuyIALg5yxzevj3cv+10Kr2+n4/f9r8P92+OOv+xSOjw/7k+HN33a8e2Obx6Op/230/H9+f78++VuQk5PP44/py/8PvMStTiRUvhz/qNSln9/fD3Dnw7PF/BKIRh4DBTLNl6oZosv1NI2PjJ1NgS1sFdA6FSaIXAkBhYlplQNIQcKYIXUqHZL0DXzNkEN+O/iIJQ6jFwnFO9DzRQYEITYhrUFkrBNyBpEu82tUgdRyoXErtAjVRAljUm1Ye1lBHqVUNTiYgmdAjCp8Hg9CBKoAC1p1KtYAg85ros7UK6ekBGBh9RmH4RaB4TqfdAoVeBDnb83b1wnAQnaMkWbQCqNCLSk32s2pcusrlVCZ4pWS7r3IQKCSs36wA0XjeBX0LrTwQqi8nZlpsEiIM2vECmBfVM826gGaiBGsqgZgRhss3Rvj9YkUDEUX8TjQf6LjBL3gUeiUHxuDo8SQRYyxfVI8VJd/DMoFhPe+ptgzVZ8bw6PMl/x1SYBY4UKpeTwBQlUk6w6fMP41K/BN982GZZGxefs/UXx1HxZxBPjQ3Z4qOc2Xl/oAeOT/b7qDcenFIfPuD7IVfnSKfv6APOxD3Mv8FjP7P2F9UR869N6hfNdkos/at4xhMUgCMe05QLp04S/Cl+8wzoYVuQxewdSHzm93sVkkWId9gBte9FqLs+fWCdE3yerZgFQdWu+Src0+sI6QecVN6TFEeet8aM7Ah4OdMARa5Jk2Fl10s1uqmvDyPWpTkuva90BJ1vJxJYxlVcQVx1NXfVVtcDxuvv0lEgRhClX70RvcKzL7BtUz3DoyvNsfDk4go3g6lusiknARvDcMma56nQLxKSHwWS1UfBBKukJwqac7kwBPkxVzvqgB58ENi5W33fUK5RBMXotJXzMWQ6aqhW0DYs6xrDSL7ZZ4CAS/OFXYF/TxLLW9GHeFtyJFOZZGAqeFQfvBhangnkI2HLV2o7PEBpIp2Y4IYRFrR4T0rpuKBUHR9kb/bVJgamYxm3BxddRIhL7yKBtuvKK6FO4PnzcRj0cnp7Ol1mX7/3tlf51vvni278=);lineShape=1;strokeColor=default;" vertex="1" parent="1">
          <mxGeometry x="64.89368631750949" y="376.61462558193796" width="35.55068843836921" height="28.223560074755028" as="geometry" />
        </mxCell>
        <mxCell id="IissaxFBr2R8JO8hJcPu-37" value="" style="shape=stencil(fZJLbsMwDERPo+1AIvVdp+k9AsSphbp24Lj53L52taiZ1NpRFJ80JEfx7tIezo0ifZnG4bO55ePUKn5TRLlvmzFPc6R4r3h3GsbmYxy++2M5nw9L5RJ9DdflhXvhUoSzC0X6UTJs4ek3816ALvcrwGgNrQXhIgJvE2kGkgCiRnDbQDDQQQDJwVcAG8AkgJXKfwmyIC+/IERT0QQTRX1w1aZfh0TwodICWOqhiFRbQwI52QBSRb81INlAfUDegeXSDKzfro8eWuoxjCSAOfhz4Sl3XTHx+v7ZtXOqOJ73Pw==);lineShape=1;strokeColor=default;" vertex="1" parent="1">
          <mxGeometry x="78.04500290332157" y="466.0617617135481" width="1.4863480035267003" height="1.4863659782485001" as="geometry" />
        </mxCell>
        <mxCell id="IissaxFBr2R8JO8hJcPu-38" value="" style="image;aspect=fixed;html=1;points=[];align=center;fontSize=12;image=img/lib/azure2/integration/Logic_Apps.svg;" vertex="1" parent="1">
          <mxGeometry x="43" y="580" width="67" height="52" as="geometry" />
        </mxCell>
        <mxCell id="IissaxFBr2R8JO8hJcPu-39" value="Azure Logic Apps job" style="text;html=1;align=center;verticalAlign=middle;whiteSpace=wrap;rounded=0;" vertex="1" parent="1">
          <mxGeometry y="632" width="150" height="30" as="geometry" />
        </mxCell>
      </root>
    </mxGraphModel>
  </diagram>
</mxfile>
